<mxfile host="app.diagrams.net" modified="2023-11-28T08:23:03.465Z" agent="Mozilla/5.0 (Windows NT 10.0; Win64; x64) AppleWebKit/537.36 (KHTML, like Gecko) Chrome/119.0.0.0 Safari/537.36 Edg/119.0.0.0" etag="1xk4GCEhJuI9U5Du73-X" version="22.1.4" type="github">
  <diagram name="Страница — 1" id="VoEZJo4x_uYEtXxC_7kK">
    <mxGraphModel dx="706" dy="842" grid="0" gridSize="10" guides="1" tooltips="1" connect="1" arrows="1" fold="1" page="0" pageScale="1" pageWidth="827" pageHeight="1169" math="0" shadow="0">
      <root>
        <mxCell id="0" />
        <mxCell id="1" parent="0" />
        <mxCell id="uDlhfajTU3gqzJsvabU9-4" value="" style="edgeStyle=none;rounded=0;orthogonalLoop=1;jettySize=auto;html=1;fontSize=12;startSize=8;endSize=8;" parent="1" source="uDlhfajTU3gqzJsvabU9-1" target="uDlhfajTU3gqzJsvabU9-3" edge="1">
          <mxGeometry relative="1" as="geometry">
            <Array as="points">
              <mxPoint x="99" y="139" />
            </Array>
          </mxGeometry>
        </mxCell>
        <mxCell id="uDlhfajTU3gqzJsvabU9-6" value="" style="edgeStyle=none;curved=1;rounded=0;orthogonalLoop=1;jettySize=auto;html=1;fontSize=12;startSize=8;endSize=8;" parent="1" source="uDlhfajTU3gqzJsvabU9-1" target="uDlhfajTU3gqzJsvabU9-5" edge="1">
          <mxGeometry relative="1" as="geometry" />
        </mxCell>
        <mxCell id="uDlhfajTU3gqzJsvabU9-8" value="" style="edgeStyle=none;rounded=0;orthogonalLoop=1;jettySize=auto;html=1;fontSize=12;startSize=8;endSize=8;" parent="1" source="uDlhfajTU3gqzJsvabU9-1" target="uDlhfajTU3gqzJsvabU9-7" edge="1">
          <mxGeometry relative="1" as="geometry">
            <Array as="points">
              <mxPoint x="406" y="139" />
            </Array>
          </mxGeometry>
        </mxCell>
        <mxCell id="uDlhfajTU3gqzJsvabU9-1" value="Программное обеспечение" style="rounded=0;whiteSpace=wrap;html=1;fontSize=16;" parent="1" vertex="1">
          <mxGeometry x="190" y="109" width="120" height="60" as="geometry" />
        </mxCell>
        <mxCell id="uDlhfajTU3gqzJsvabU9-10" value="" style="edgeStyle=none;rounded=0;orthogonalLoop=1;jettySize=auto;html=1;fontSize=12;startSize=8;endSize=8;" parent="1" source="uDlhfajTU3gqzJsvabU9-3" target="uDlhfajTU3gqzJsvabU9-9" edge="1">
          <mxGeometry relative="1" as="geometry">
            <Array as="points">
              <mxPoint x="27" y="261" />
              <mxPoint x="27" y="363" />
            </Array>
          </mxGeometry>
        </mxCell>
        <mxCell id="uDlhfajTU3gqzJsvabU9-3" value="Общесистемное ПО" style="rounded=0;whiteSpace=wrap;html=1;fontSize=16;" parent="1" vertex="1">
          <mxGeometry x="39" y="228" width="120" height="60" as="geometry" />
        </mxCell>
        <mxCell id="uDlhfajTU3gqzJsvabU9-5" value="Инструментальные средства" style="whiteSpace=wrap;html=1;fontSize=16;rounded=0;" parent="1" vertex="1">
          <mxGeometry x="172.5" y="228" width="155" height="60" as="geometry" />
        </mxCell>
        <mxCell id="uDlhfajTU3gqzJsvabU9-7" value="Специальное ПО" style="whiteSpace=wrap;html=1;fontSize=16;rounded=0;" parent="1" vertex="1">
          <mxGeometry x="346" y="230" width="120" height="60" as="geometry" />
        </mxCell>
        <mxCell id="uDlhfajTU3gqzJsvabU9-9" value="ОС Windows 10" style="whiteSpace=wrap;html=1;fontSize=16;rounded=0;" parent="1" vertex="1">
          <mxGeometry x="58" y="334" width="120" height="60" as="geometry" />
        </mxCell>
        <mxCell id="uDlhfajTU3gqzJsvabU9-12" value="" style="endArrow=classic;html=1;rounded=0;fontSize=12;startSize=8;endSize=8;exitX=0.148;exitY=1.009;exitDx=0;exitDy=0;exitPerimeter=0;entryX=0;entryY=0.5;entryDx=0;entryDy=0;" parent="1" source="uDlhfajTU3gqzJsvabU9-5" target="uDlhfajTU3gqzJsvabU9-13" edge="1">
          <mxGeometry width="50" height="50" relative="1" as="geometry">
            <mxPoint x="202" y="306" as="sourcePoint" />
            <mxPoint x="195" y="391" as="targetPoint" />
            <Array as="points">
              <mxPoint x="195" y="364" />
            </Array>
          </mxGeometry>
        </mxCell>
        <mxCell id="uDlhfajTU3gqzJsvabU9-13" value="PyCharm 2022" style="rounded=0;whiteSpace=wrap;html=1;fontSize=16;" parent="1" vertex="1">
          <mxGeometry x="222" y="334" width="120" height="60" as="geometry" />
        </mxCell>
        <mxCell id="uDlhfajTU3gqzJsvabU9-15" value="" style="endArrow=classic;html=1;rounded=0;fontSize=12;startSize=8;endSize=8;exitX=0.148;exitY=1.007;exitDx=0;exitDy=0;exitPerimeter=0;entryX=0;entryY=0.5;entryDx=0;entryDy=0;" parent="1" source="uDlhfajTU3gqzJsvabU9-5" target="uDlhfajTU3gqzJsvabU9-16" edge="1">
          <mxGeometry width="50" height="50" relative="1" as="geometry">
            <mxPoint x="197" y="496" as="sourcePoint" />
            <mxPoint x="198" y="474" as="targetPoint" />
            <Array as="points">
              <mxPoint x="195" y="454" />
            </Array>
          </mxGeometry>
        </mxCell>
        <mxCell id="uDlhfajTU3gqzJsvabU9-16" value="PostgreSQL" style="rounded=0;whiteSpace=wrap;html=1;fontSize=16;" parent="1" vertex="1">
          <mxGeometry x="222" y="425" width="120" height="60" as="geometry" />
        </mxCell>
        <mxCell id="uDlhfajTU3gqzJsvabU9-18" value="" style="endArrow=classic;html=1;rounded=0;fontSize=12;startSize=8;endSize=8;exitX=0.25;exitY=1;exitDx=0;exitDy=0;" parent="1" source="uDlhfajTU3gqzJsvabU9-7" target="uDlhfajTU3gqzJsvabU9-19" edge="1">
          <mxGeometry width="50" height="50" relative="1" as="geometry">
            <mxPoint x="376" y="290" as="sourcePoint" />
            <mxPoint x="376" y="367" as="targetPoint" />
            <Array as="points">
              <mxPoint x="376" y="370" />
            </Array>
          </mxGeometry>
        </mxCell>
        <mxCell id="uDlhfajTU3gqzJsvabU9-19" value="Модуль базы данных" style="rounded=0;whiteSpace=wrap;html=1;fontSize=16;" parent="1" vertex="1">
          <mxGeometry x="392" y="334" width="120" height="60" as="geometry" />
        </mxCell>
        <mxCell id="uDlhfajTU3gqzJsvabU9-20" value="Модуль обработки входных данных" style="rounded=0;whiteSpace=wrap;html=1;fontSize=16;" parent="1" vertex="1">
          <mxGeometry x="392" y="425" width="131" height="73" as="geometry" />
        </mxCell>
        <mxCell id="uDlhfajTU3gqzJsvabU9-21" value="" style="endArrow=classic;html=1;rounded=0;fontSize=12;startSize=8;endSize=8;exitX=0.25;exitY=1;exitDx=0;exitDy=0;entryX=0;entryY=0.5;entryDx=0;entryDy=0;" parent="1" source="uDlhfajTU3gqzJsvabU9-7" target="uDlhfajTU3gqzJsvabU9-20" edge="1">
          <mxGeometry width="50" height="50" relative="1" as="geometry">
            <mxPoint x="331" y="554" as="sourcePoint" />
            <mxPoint x="381" y="504" as="targetPoint" />
            <Array as="points">
              <mxPoint x="376" y="462" />
            </Array>
          </mxGeometry>
        </mxCell>
        <mxCell id="uDlhfajTU3gqzJsvabU9-29" style="edgeStyle=none;curved=1;rounded=0;orthogonalLoop=1;jettySize=auto;html=1;entryX=1;entryY=1;entryDx=0;entryDy=0;fontSize=12;startSize=8;endSize=8;" parent="1" target="uDlhfajTU3gqzJsvabU9-25" edge="1">
          <mxGeometry relative="1" as="geometry">
            <mxPoint x="759.3835616438356" y="919" as="sourcePoint" />
          </mxGeometry>
        </mxCell>
        <mxCell id="uDlhfajTU3gqzJsvabU9-30" style="edgeStyle=none;curved=1;rounded=0;orthogonalLoop=1;jettySize=auto;html=1;entryX=0;entryY=1;entryDx=0;entryDy=0;fontSize=12;startSize=8;endSize=8;" parent="1" target="uDlhfajTU3gqzJsvabU9-26" edge="1">
          <mxGeometry relative="1" as="geometry">
            <mxPoint x="818.578947368421" y="919" as="sourcePoint" />
          </mxGeometry>
        </mxCell>
        <mxCell id="uDlhfajTU3gqzJsvabU9-31" style="edgeStyle=none;curved=1;rounded=0;orthogonalLoop=1;jettySize=auto;html=1;entryX=0.5;entryY=0;entryDx=0;entryDy=0;fontSize=12;startSize=8;endSize=8;" parent="1" target="uDlhfajTU3gqzJsvabU9-28" edge="1">
          <mxGeometry relative="1" as="geometry">
            <mxPoint x="741.3478260869565" y="1003" as="sourcePoint" />
          </mxGeometry>
        </mxCell>
        <mxCell id="uDlhfajTU3gqzJsvabU9-25" value="&lt;span class=&quot;a&quot;&gt;&lt;span style=&quot;font-size:14.0pt;&lt;br/&gt;line-height:150%;mso-fareast-font-family:Calibri;mso-fareast-theme-font:minor-latin;&lt;br/&gt;mso-ansi-language:RU;mso-fareast-language:EN-US;mso-bidi-language:AR-SA&quot;&gt;tkinter&lt;br&gt;«library»&lt;/span&gt;&lt;/span&gt;" style="rounded=0;whiteSpace=wrap;html=1;fontSize=16;" parent="1" vertex="1">
          <mxGeometry x="619" y="828" width="120" height="60" as="geometry" />
        </mxCell>
        <mxCell id="wwQV_cq410W-Oo6DvZtB-7" style="edgeStyle=none;curved=1;rounded=0;orthogonalLoop=1;jettySize=auto;html=1;fontSize=12;startSize=8;endSize=8;" edge="1" parent="1" source="uDlhfajTU3gqzJsvabU9-26" target="wwQV_cq410W-Oo6DvZtB-6">
          <mxGeometry relative="1" as="geometry" />
        </mxCell>
        <mxCell id="wwQV_cq410W-Oo6DvZtB-15" style="edgeStyle=none;curved=1;rounded=0;orthogonalLoop=1;jettySize=auto;html=1;entryX=0.5;entryY=1;entryDx=0;entryDy=0;fontSize=12;startSize=8;endSize=8;" edge="1" parent="1" source="uDlhfajTU3gqzJsvabU9-26" target="wwQV_cq410W-Oo6DvZtB-14">
          <mxGeometry relative="1" as="geometry" />
        </mxCell>
        <mxCell id="uDlhfajTU3gqzJsvabU9-26" value="&lt;span class=&quot;a&quot;&gt;PhotovoltaicModelCore.py&lt;br&gt;&lt;span style=&quot;font-size:14.0pt;&lt;br/&gt;line-height:150%;mso-fareast-font-family:Calibri;mso-fareast-theme-font:minor-latin;&lt;br/&gt;mso-ansi-language:RU;mso-fareast-language:EN-US;mso-bidi-language:AR-SA&quot;&gt;«source»&lt;/span&gt;&lt;/span&gt;" style="rounded=0;whiteSpace=wrap;html=1;fontSize=16;" parent="1" vertex="1">
          <mxGeometry x="837" y="821.5" width="193" height="73" as="geometry" />
        </mxCell>
        <mxCell id="uDlhfajTU3gqzJsvabU9-28" value="PhotovoltaicModel.py&lt;br&gt;&lt;span class=&quot;a&quot;&gt;&lt;span style=&quot;font-size:14.0pt;&lt;br/&gt;line-height:150%;mso-fareast-font-family:Calibri;mso-fareast-theme-font:minor-latin;&lt;br/&gt;mso-ansi-language:RU;mso-fareast-language:EN-US;mso-bidi-language:AR-SA&quot;&gt;«source»&lt;/span&gt;&lt;/span&gt;" style="rounded=0;whiteSpace=wrap;html=1;fontSize=16;" parent="1" vertex="1">
          <mxGeometry x="636" y="1030" width="152" height="84" as="geometry" />
        </mxCell>
        <mxCell id="uDlhfajTU3gqzJsvabU9-36" style="edgeStyle=none;curved=1;rounded=0;orthogonalLoop=1;jettySize=auto;html=1;entryX=0.5;entryY=0;entryDx=0;entryDy=0;fontSize=12;startSize=8;endSize=8;" parent="1" source="uDlhfajTU3gqzJsvabU9-33" target="uDlhfajTU3gqzJsvabU9-34" edge="1">
          <mxGeometry relative="1" as="geometry" />
        </mxCell>
        <mxCell id="uDlhfajTU3gqzJsvabU9-37" style="edgeStyle=none;curved=1;rounded=0;orthogonalLoop=1;jettySize=auto;html=1;entryX=0.5;entryY=0;entryDx=0;entryDy=0;fontSize=12;startSize=8;endSize=8;" parent="1" source="uDlhfajTU3gqzJsvabU9-33" target="uDlhfajTU3gqzJsvabU9-35" edge="1">
          <mxGeometry relative="1" as="geometry" />
        </mxCell>
        <mxCell id="uDlhfajTU3gqzJsvabU9-33" value="&lt;span class=&quot;a&quot;&gt;&lt;span style=&quot;font-size:14.0pt;&lt;br/&gt;line-height:150%;mso-fareast-font-family:Calibri;mso-fareast-theme-font:minor-latin;&lt;br/&gt;mso-ansi-language:RU;mso-fareast-language:EN-US;mso-bidi-language:AR-SA&quot;&gt;«processor»&lt;br&gt;&lt;/span&gt;&lt;/span&gt;компьютер" style="rounded=0;whiteSpace=wrap;html=1;fontSize=16;" parent="1" vertex="1">
          <mxGeometry x="1030" y="293" width="120" height="60" as="geometry" />
        </mxCell>
        <mxCell id="uDlhfajTU3gqzJsvabU9-34" value="&lt;span class=&quot;a&quot;&gt;&lt;span style=&quot;font-size:14.0pt;&lt;br/&gt;line-height:150%;mso-fareast-font-family:Calibri;mso-fareast-theme-font:minor-latin;&lt;br/&gt;mso-ansi-language:RU;mso-fareast-language:EN-US;mso-bidi-language:AR-SA&quot;&gt;«database»&lt;br&gt;&lt;/span&gt;&lt;/span&gt;PostgreSQL" style="rounded=0;whiteSpace=wrap;html=1;fontSize=16;" parent="1" vertex="1">
          <mxGeometry x="905" y="417" width="120" height="60" as="geometry" />
        </mxCell>
        <mxCell id="uDlhfajTU3gqzJsvabU9-35" value="&lt;span class=&quot;a&quot;&gt;&lt;span style=&quot;font-size:14.0pt;&lt;br/&gt;line-height:150%;mso-fareast-font-family:Calibri;mso-fareast-theme-font:minor-latin;&lt;br/&gt;mso-ansi-language:RU;mso-fareast-language:EN-US;mso-bidi-language:AR-SA&quot;&gt;«executeble»&lt;br&gt;&lt;/span&gt;&lt;/span&gt;login.py" style="rounded=0;whiteSpace=wrap;html=1;fontSize=16;" parent="1" vertex="1">
          <mxGeometry x="1145" y="415" width="120" height="60" as="geometry" />
        </mxCell>
        <mxCell id="fnIkYHsS6YIUJgK9Yxuw-1" value="Модуль выходных данных" style="rounded=0;whiteSpace=wrap;html=1;fontSize=16;" parent="1" vertex="1">
          <mxGeometry x="386.5" y="521" width="131" height="73" as="geometry" />
        </mxCell>
        <mxCell id="fnIkYHsS6YIUJgK9Yxuw-2" value="" style="endArrow=classic;html=1;rounded=0;fontSize=12;startSize=8;endSize=8;exitX=0.25;exitY=1;exitDx=0;exitDy=0;entryX=0.011;entryY=0.425;entryDx=0;entryDy=0;entryPerimeter=0;" parent="1" source="uDlhfajTU3gqzJsvabU9-7" target="fnIkYHsS6YIUJgK9Yxuw-1" edge="1">
          <mxGeometry width="50" height="50" relative="1" as="geometry">
            <mxPoint x="284" y="627" as="sourcePoint" />
            <mxPoint x="334" y="577" as="targetPoint" />
            <Array as="points">
              <mxPoint x="374" y="548" />
            </Array>
          </mxGeometry>
        </mxCell>
        <mxCell id="wwQV_cq410W-Oo6DvZtB-1" style="edgeStyle=none;curved=1;rounded=0;orthogonalLoop=1;jettySize=auto;html=1;fontSize=12;startSize=8;endSize=8;" edge="1" parent="1">
          <mxGeometry relative="1" as="geometry">
            <mxPoint x="953" y="980" as="targetPoint" />
            <mxPoint x="953" y="980" as="sourcePoint" />
          </mxGeometry>
        </mxCell>
        <mxCell id="wwQV_cq410W-Oo6DvZtB-10" value="" style="edgeStyle=none;curved=1;rounded=0;orthogonalLoop=1;jettySize=auto;html=1;fontSize=12;startSize=8;endSize=8;" edge="1" parent="1" source="fnIkYHsS6YIUJgK9Yxuw-3">
          <mxGeometry relative="1" as="geometry">
            <mxPoint x="674" y="959" as="targetPoint" />
          </mxGeometry>
        </mxCell>
        <mxCell id="fnIkYHsS6YIUJgK9Yxuw-3" value="login.py&lt;br&gt;&lt;span class=&quot;a&quot;&gt;&lt;span style=&quot;font-size:14.0pt;&lt;br/&gt;line-height:150%;mso-fareast-font-family:Calibri;mso-fareast-theme-font:minor-latin;&lt;br/&gt;mso-ansi-language:RU;mso-fareast-language:EN-US;mso-bidi-language:AR-SA&quot;&gt;«executable»&lt;/span&gt;&lt;/span&gt;" style="rounded=0;whiteSpace=wrap;html=1;fontSize=16;" parent="1" vertex="1">
          <mxGeometry x="719" y="917" width="152" height="84" as="geometry" />
        </mxCell>
        <mxCell id="wwQV_cq410W-Oo6DvZtB-2" value="" style="edgeStyle=none;curved=1;rounded=0;orthogonalLoop=1;jettySize=auto;html=1;fontSize=12;startSize=8;endSize=8;" edge="1" parent="1" source="fnIkYHsS6YIUJgK9Yxuw-3">
          <mxGeometry relative="1" as="geometry">
            <mxPoint x="953" y="969.5091743119267" as="targetPoint" />
            <mxPoint x="871" y="969" as="sourcePoint" />
          </mxGeometry>
        </mxCell>
        <mxCell id="wwQV_cq410W-Oo6DvZtB-4" value="client&lt;br&gt;&lt;span class=&quot;a&quot;&gt;&lt;span style=&quot;font-size:14.0pt;&lt;br/&gt;line-height:150%;mso-fareast-font-family:Calibri;mso-fareast-theme-font:minor-latin;&lt;br/&gt;mso-ansi-language:RU;mso-fareast-language:EN-US;mso-bidi-language:AR-SA&quot;&gt;«table»&lt;/span&gt;&lt;/span&gt;" style="rounded=0;whiteSpace=wrap;html=1;fontSize=16;" vertex="1" parent="1">
          <mxGeometry x="955" y="933" width="152" height="84" as="geometry" />
        </mxCell>
        <mxCell id="wwQV_cq410W-Oo6DvZtB-6" value="parameters&lt;br&gt;&lt;span class=&quot;a&quot;&gt;&lt;span style=&quot;font-size:14.0pt;&lt;br/&gt;line-height:150%;mso-fareast-font-family:Calibri;mso-fareast-theme-font:minor-latin;&lt;br/&gt;mso-ansi-language:RU;mso-fareast-language:EN-US;mso-bidi-language:AR-SA&quot;&gt;«table»&lt;/span&gt;&lt;/span&gt;" style="rounded=0;whiteSpace=wrap;html=1;fontSize=16;" vertex="1" parent="1">
          <mxGeometry x="1113" y="816" width="152" height="84" as="geometry" />
        </mxCell>
        <mxCell id="wwQV_cq410W-Oo6DvZtB-11" value="&lt;span class=&quot;a&quot;&gt;psycopg2&lt;span style=&quot;font-size:14.0pt;&lt;br/&gt;line-height:150%;mso-fareast-font-family:Calibri;mso-fareast-theme-font:minor-latin;&lt;br/&gt;mso-ansi-language:RU;mso-fareast-language:EN-US;mso-bidi-language:AR-SA&quot;&gt;&lt;br&gt;«library»&lt;/span&gt;&lt;/span&gt;" style="rounded=0;whiteSpace=wrap;html=1;fontSize=16;" vertex="1" parent="1">
          <mxGeometry x="555" y="920" width="120" height="60" as="geometry" />
        </mxCell>
        <mxCell id="wwQV_cq410W-Oo6DvZtB-12" value="&lt;span class=&quot;a&quot;&gt;numpy&lt;span style=&quot;font-size:14.0pt;&lt;br/&gt;line-height:150%;mso-fareast-font-family:Calibri;mso-fareast-theme-font:minor-latin;&lt;br/&gt;mso-ansi-language:RU;mso-fareast-language:EN-US;mso-bidi-language:AR-SA&quot;&gt;&lt;br&gt;«library»&lt;/span&gt;&lt;/span&gt;" style="rounded=0;whiteSpace=wrap;html=1;fontSize=16;" vertex="1" parent="1">
          <mxGeometry x="865" y="1057" width="120" height="60" as="geometry" />
        </mxCell>
        <mxCell id="wwQV_cq410W-Oo6DvZtB-13" style="edgeStyle=none;curved=1;rounded=0;orthogonalLoop=1;jettySize=auto;html=1;entryX=0.325;entryY=0.083;entryDx=0;entryDy=0;entryPerimeter=0;fontSize=12;startSize=8;endSize=8;" edge="1" parent="1" source="fnIkYHsS6YIUJgK9Yxuw-3" target="wwQV_cq410W-Oo6DvZtB-12">
          <mxGeometry relative="1" as="geometry" />
        </mxCell>
        <mxCell id="wwQV_cq410W-Oo6DvZtB-14" value="report&lt;br&gt;&lt;span class=&quot;a&quot;&gt;&lt;span style=&quot;font-size:14.0pt;&lt;br/&gt;line-height:150%;mso-fareast-font-family:Calibri;mso-fareast-theme-font:minor-latin;&lt;br/&gt;mso-ansi-language:RU;mso-fareast-language:EN-US;mso-bidi-language:AR-SA&quot;&gt;«table»&lt;/span&gt;&lt;/span&gt;" style="rounded=0;whiteSpace=wrap;html=1;fontSize=16;" vertex="1" parent="1">
          <mxGeometry x="849" y="672" width="152" height="84" as="geometry" />
        </mxCell>
      </root>
    </mxGraphModel>
  </diagram>
</mxfile>
